<mxfile host="app.diagrams.net" modified="2020-11-25T15:11:10.029Z" agent="5.0 (Windows NT 10.0; Win64; x64) AppleWebKit/537.36 (KHTML, like Gecko) Chrome/87.0.4280.66 Safari/537.36" etag="a-RHq68dQ5_yJHeCsNcC" version="13.10.2" type="github">
  <diagram id="dDjfRsEN1ug2k62WeG1b" name="Page-1">
    <mxGraphModel dx="1422" dy="705" grid="1" gridSize="10" guides="1" tooltips="1" connect="1" arrows="1" fold="1" page="1" pageScale="1" pageWidth="827" pageHeight="1169" math="0" shadow="0">
      <root>
        <mxCell id="0" />
        <mxCell id="1" parent="0" />
        <mxCell id="sfmJpsZofoT2jx0BlZdd-1" value="" style="rounded=0;whiteSpace=wrap;html=1;fillColor=none;fontSize=14;align=right;" vertex="1" parent="1">
          <mxGeometry x="14" y="50" width="800" height="730" as="geometry" />
        </mxCell>
        <mxCell id="sfmJpsZofoT2jx0BlZdd-71" value="" style="rounded=0;whiteSpace=wrap;html=1;dashed=1;" vertex="1" parent="1">
          <mxGeometry x="67.65" y="540" width="262.35" height="130" as="geometry" />
        </mxCell>
        <mxCell id="sfmJpsZofoT2jx0BlZdd-2" value="&lt;b&gt;&lt;font style=&quot;font-size: 16px&quot;&gt;Flowchart of Insertion and Extraction Test Automation System without communication and feedback&lt;/font&gt;&lt;/b&gt;" style="text;html=1;strokeColor=none;fillColor=none;align=left;verticalAlign=middle;whiteSpace=wrap;rounded=0;fontSize=14;" vertex="1" parent="1">
          <mxGeometry x="20" y="10" width="840" height="30" as="geometry" />
        </mxCell>
        <mxCell id="sfmJpsZofoT2jx0BlZdd-3" style="edgeStyle=orthogonalEdgeStyle;rounded=0;orthogonalLoop=1;jettySize=auto;html=1;exitX=1;exitY=0.5;exitDx=0;exitDy=0;entryX=0.5;entryY=0;entryDx=0;entryDy=0;fontSize=14;" edge="1" parent="1" source="sfmJpsZofoT2jx0BlZdd-5" target="sfmJpsZofoT2jx0BlZdd-12">
          <mxGeometry relative="1" as="geometry" />
        </mxCell>
        <mxCell id="sfmJpsZofoT2jx0BlZdd-4" style="edgeStyle=orthogonalEdgeStyle;rounded=0;orthogonalLoop=1;jettySize=auto;html=1;exitX=0;exitY=0.5;exitDx=0;exitDy=0;entryX=0.5;entryY=0;entryDx=0;entryDy=0;fontSize=14;" edge="1" parent="1" source="sfmJpsZofoT2jx0BlZdd-5" target="sfmJpsZofoT2jx0BlZdd-10">
          <mxGeometry relative="1" as="geometry" />
        </mxCell>
        <mxCell id="sfmJpsZofoT2jx0BlZdd-5" value="Test id is odd?" style="rhombus;whiteSpace=wrap;html=1;shadow=0;fontFamily=Helvetica;fontSize=12;align=center;strokeWidth=1;spacing=6;spacingTop=-4;" vertex="1" parent="1">
          <mxGeometry x="140" y="220" width="115" height="50" as="geometry" />
        </mxCell>
        <mxCell id="sfmJpsZofoT2jx0BlZdd-6" value="" style="endArrow=none;html=1;exitX=0.956;exitY=1.033;exitDx=0;exitDy=0;exitPerimeter=0;" edge="1" parent="1" source="sfmJpsZofoT2jx0BlZdd-2">
          <mxGeometry width="50" height="50" relative="1" as="geometry">
            <mxPoint x="810" y="40" as="sourcePoint" />
            <mxPoint x="10" y="40" as="targetPoint" />
          </mxGeometry>
        </mxCell>
        <mxCell id="sfmJpsZofoT2jx0BlZdd-7" style="edgeStyle=orthogonalEdgeStyle;rounded=0;orthogonalLoop=1;jettySize=auto;html=1;exitX=0.5;exitY=1;exitDx=0;exitDy=0;entryX=0.5;entryY=0;entryDx=0;entryDy=0;fontSize=14;" edge="1" parent="1" source="sfmJpsZofoT2jx0BlZdd-8" target="sfmJpsZofoT2jx0BlZdd-40">
          <mxGeometry relative="1" as="geometry" />
        </mxCell>
        <mxCell id="sfmJpsZofoT2jx0BlZdd-8" value="Initialize parameters" style="rounded=1;whiteSpace=wrap;html=1;fontSize=14;align=center;" vertex="1" parent="1">
          <mxGeometry x="140" y="130" width="115" height="40" as="geometry" />
        </mxCell>
        <mxCell id="sfmJpsZofoT2jx0BlZdd-9" style="edgeStyle=orthogonalEdgeStyle;rounded=0;orthogonalLoop=1;jettySize=auto;html=1;exitX=0.5;exitY=1;exitDx=0;exitDy=0;entryX=0;entryY=0.5;entryDx=0;entryDy=0;fontSize=14;" edge="1" parent="1" source="sfmJpsZofoT2jx0BlZdd-10" target="sfmJpsZofoT2jx0BlZdd-14">
          <mxGeometry relative="1" as="geometry" />
        </mxCell>
        <mxCell id="sfmJpsZofoT2jx0BlZdd-10" value="Take Voyager #2" style="rounded=1;whiteSpace=wrap;html=1;fontSize=14;align=center;" vertex="1" parent="1">
          <mxGeometry x="45" y="280" width="115" height="40" as="geometry" />
        </mxCell>
        <mxCell id="sfmJpsZofoT2jx0BlZdd-11" style="edgeStyle=orthogonalEdgeStyle;rounded=0;orthogonalLoop=1;jettySize=auto;html=1;exitX=0.5;exitY=1;exitDx=0;exitDy=0;entryX=1;entryY=0.5;entryDx=0;entryDy=0;fontSize=14;" edge="1" parent="1" source="sfmJpsZofoT2jx0BlZdd-12" target="sfmJpsZofoT2jx0BlZdd-14">
          <mxGeometry relative="1" as="geometry" />
        </mxCell>
        <mxCell id="sfmJpsZofoT2jx0BlZdd-12" value="Take Voyager #1" style="rounded=1;whiteSpace=wrap;html=1;fontSize=14;align=center;" vertex="1" parent="1">
          <mxGeometry x="228.13" y="280" width="115" height="40" as="geometry" />
        </mxCell>
        <mxCell id="sfmJpsZofoT2jx0BlZdd-13" style="edgeStyle=orthogonalEdgeStyle;rounded=0;orthogonalLoop=1;jettySize=auto;html=1;exitX=0.5;exitY=1;exitDx=0;exitDy=0;entryX=0.5;entryY=0;entryDx=0;entryDy=0;fontSize=14;" edge="1" parent="1" source="sfmJpsZofoT2jx0BlZdd-14" target="sfmJpsZofoT2jx0BlZdd-16">
          <mxGeometry relative="1" as="geometry" />
        </mxCell>
        <mxCell id="sfmJpsZofoT2jx0BlZdd-14" value="" style="ellipse;whiteSpace=wrap;html=1;aspect=fixed;fontSize=14;align=left;" vertex="1" parent="1">
          <mxGeometry x="187.5" y="340" width="20" height="20" as="geometry" />
        </mxCell>
        <mxCell id="sfmJpsZofoT2jx0BlZdd-15" style="edgeStyle=orthogonalEdgeStyle;rounded=0;orthogonalLoop=1;jettySize=auto;html=1;exitX=0.5;exitY=1;exitDx=0;exitDy=0;entryX=0.5;entryY=0;entryDx=0;entryDy=0;fontSize=14;" edge="1" parent="1" source="sfmJpsZofoT2jx0BlZdd-16" target="sfmJpsZofoT2jx0BlZdd-21">
          <mxGeometry relative="1" as="geometry" />
        </mxCell>
        <mxCell id="sfmJpsZofoT2jx0BlZdd-16" value="Place Voyager upon Arduino tool platform&amp;nbsp;&amp;nbsp;" style="rounded=1;whiteSpace=wrap;html=1;fontSize=14;align=center;" vertex="1" parent="1">
          <mxGeometry x="126.25" y="390" width="142.5" height="60" as="geometry" />
        </mxCell>
        <mxCell id="sfmJpsZofoT2jx0BlZdd-17" style="edgeStyle=orthogonalEdgeStyle;rounded=0;jumpStyle=none;orthogonalLoop=1;jettySize=auto;html=1;exitX=0.5;exitY=1;exitDx=0;exitDy=0;entryX=0.5;entryY=0;entryDx=0;entryDy=0;fontSize=14;" edge="1" parent="1" source="sfmJpsZofoT2jx0BlZdd-18" target="sfmJpsZofoT2jx0BlZdd-8">
          <mxGeometry relative="1" as="geometry" />
        </mxCell>
        <mxCell id="sfmJpsZofoT2jx0BlZdd-18" value="start" style="ellipse;whiteSpace=wrap;html=1;fontSize=14;align=center;" vertex="1" parent="1">
          <mxGeometry x="151.87" y="80" width="90" height="30" as="geometry" />
        </mxCell>
        <mxCell id="sfmJpsZofoT2jx0BlZdd-19" value="Test id is odd?" style="rhombus;whiteSpace=wrap;html=1;shadow=0;fontFamily=Helvetica;fontSize=12;align=center;strokeWidth=1;spacing=6;spacingTop=-4;" vertex="1" parent="1">
          <mxGeometry x="140" y="220" width="115" height="50" as="geometry" />
        </mxCell>
        <mxCell id="sfmJpsZofoT2jx0BlZdd-20" style="edgeStyle=orthogonalEdgeStyle;rounded=0;orthogonalLoop=1;jettySize=auto;html=1;exitX=0.5;exitY=1;exitDx=0;exitDy=0;entryX=0.5;entryY=0;entryDx=0;entryDy=0;fontSize=14;" edge="1" parent="1" source="sfmJpsZofoT2jx0BlZdd-21" target="sfmJpsZofoT2jx0BlZdd-25">
          <mxGeometry relative="1" as="geometry" />
        </mxCell>
        <mxCell id="sfmJpsZofoT2jx0BlZdd-21" value="Arduino gripper fix Voyager" style="rounded=1;whiteSpace=wrap;html=1;fontSize=14;align=center;" vertex="1" parent="1">
          <mxGeometry x="125" y="480" width="143.75" height="50" as="geometry" />
        </mxCell>
        <mxCell id="sfmJpsZofoT2jx0BlZdd-22" style="edgeStyle=orthogonalEdgeStyle;rounded=0;jumpStyle=none;orthogonalLoop=1;jettySize=auto;html=1;exitX=0.5;exitY=1;exitDx=0;exitDy=0;entryX=0.5;entryY=1;entryDx=0;entryDy=0;fontSize=14;" edge="1" parent="1" source="sfmJpsZofoT2jx0BlZdd-23" target="sfmJpsZofoT2jx0BlZdd-52">
          <mxGeometry relative="1" as="geometry" />
        </mxCell>
        <mxCell id="sfmJpsZofoT2jx0BlZdd-23" value="Take stick from pallet" style="rounded=1;whiteSpace=wrap;html=1;fontSize=14;align=center;" vertex="1" parent="1">
          <mxGeometry x="125" y="680" width="143.75" height="40" as="geometry" />
        </mxCell>
        <mxCell id="sfmJpsZofoT2jx0BlZdd-24" style="edgeStyle=orthogonalEdgeStyle;rounded=0;orthogonalLoop=1;jettySize=auto;html=1;exitX=0;exitY=0.5;exitDx=0;exitDy=0;fontSize=14;entryX=0;entryY=0.5;entryDx=0;entryDy=0;" edge="1" parent="1" source="sfmJpsZofoT2jx0BlZdd-25" target="sfmJpsZofoT2jx0BlZdd-38">
          <mxGeometry relative="1" as="geometry">
            <mxPoint x="116.13" y="660" as="targetPoint" />
          </mxGeometry>
        </mxCell>
        <mxCell id="sfmJpsZofoT2jx0BlZdd-25" value="stick id is last&lt;br&gt;&amp;nbsp;of pallet?" style="rhombus;whiteSpace=wrap;html=1;shadow=0;fontFamily=Helvetica;fontSize=12;align=center;strokeWidth=1;spacing=6;spacingTop=-4;" vertex="1" parent="1">
          <mxGeometry x="136.56" y="550" width="120.62" height="60" as="geometry" />
        </mxCell>
        <mxCell id="sfmJpsZofoT2jx0BlZdd-26" value="&lt;span style=&quot;color: rgb(0 , 0 , 0) ; font-family: &amp;#34;helvetica&amp;#34; ; font-size: 12px ; font-style: normal ; font-weight: 400 ; letter-spacing: normal ; text-align: center ; text-indent: 0px ; text-transform: none ; word-spacing: 0px ; background-color: rgb(248 , 249 , 250) ; display: inline ; float: none&quot;&gt;Test id + +&lt;/span&gt;" style="text;whiteSpace=wrap;html=1;fontSize=14;" vertex="1" parent="1">
          <mxGeometry x="170" y="310" width="65" height="30" as="geometry" />
        </mxCell>
        <mxCell id="sfmJpsZofoT2jx0BlZdd-27" value="" style="strokeWidth=2;html=1;shape=mxgraph.flowchart.annotation_2;align=left;labelPosition=right;pointerEvents=1;fontSize=14;" vertex="1" parent="1">
          <mxGeometry x="258.13" y="125" width="15" height="45" as="geometry" />
        </mxCell>
        <mxCell id="sfmJpsZofoT2jx0BlZdd-28" value="Test id =1;" style="text;html=1;strokeColor=none;fillColor=none;align=center;verticalAlign=middle;whiteSpace=wrap;rounded=0;fontSize=14;" vertex="1" parent="1">
          <mxGeometry x="280" y="125" width="73.13" height="20" as="geometry" />
        </mxCell>
        <mxCell id="sfmJpsZofoT2jx0BlZdd-29" value="End" style="ellipse;whiteSpace=wrap;html=1;fontSize=14;align=center;" vertex="1" parent="1">
          <mxGeometry x="577.5" y="477.5" width="90" height="30" as="geometry" />
        </mxCell>
        <mxCell id="sfmJpsZofoT2jx0BlZdd-30" value="no" style="text;html=1;align=center;verticalAlign=middle;resizable=0;points=[];autosize=1;fontSize=14;" vertex="1" parent="1">
          <mxGeometry x="106.56" y="250" width="30" height="20" as="geometry" />
        </mxCell>
        <mxCell id="sfmJpsZofoT2jx0BlZdd-31" value="yes" style="text;html=1;align=center;verticalAlign=middle;resizable=0;points=[];autosize=1;fontSize=14;" vertex="1" parent="1">
          <mxGeometry x="245.63" y="250" width="40" height="20" as="geometry" />
        </mxCell>
        <mxCell id="sfmJpsZofoT2jx0BlZdd-32" value="no,&amp;nbsp;&lt;br&gt;stick id ++&lt;br&gt;" style="text;html=1;strokeColor=none;fillColor=none;align=left;verticalAlign=middle;whiteSpace=wrap;rounded=0;fontSize=14;" vertex="1" parent="1">
          <mxGeometry x="116.87" y="590" width="70" height="40" as="geometry" />
        </mxCell>
        <mxCell id="sfmJpsZofoT2jx0BlZdd-33" style="edgeStyle=orthogonalEdgeStyle;rounded=0;orthogonalLoop=1;jettySize=auto;html=1;exitX=0.5;exitY=1;exitDx=0;exitDy=0;entryX=0.5;entryY=0;entryDx=0;entryDy=0;fontSize=14;" edge="1" parent="1" source="sfmJpsZofoT2jx0BlZdd-35" target="sfmJpsZofoT2jx0BlZdd-29">
          <mxGeometry relative="1" as="geometry" />
        </mxCell>
        <mxCell id="sfmJpsZofoT2jx0BlZdd-34" style="rounded=0;orthogonalLoop=1;jettySize=auto;html=1;exitX=1;exitY=0.5;exitDx=0;exitDy=0;entryX=1;entryY=0.5;entryDx=0;entryDy=0;fontSize=14;edgeStyle=orthogonalEdgeStyle;elbow=vertical;jumpStyle=none;" edge="1" parent="1" source="sfmJpsZofoT2jx0BlZdd-35" target="sfmJpsZofoT2jx0BlZdd-40">
          <mxGeometry relative="1" as="geometry">
            <Array as="points">
              <mxPoint x="730" y="435" />
              <mxPoint x="730" y="195" />
            </Array>
          </mxGeometry>
        </mxCell>
        <mxCell id="sfmJpsZofoT2jx0BlZdd-35" value="is last loop?" style="rhombus;whiteSpace=wrap;html=1;fontSize=14;align=center;" vertex="1" parent="1">
          <mxGeometry x="570" y="410" width="105" height="50" as="geometry" />
        </mxCell>
        <mxCell id="sfmJpsZofoT2jx0BlZdd-36" value="yes" style="text;html=1;align=center;verticalAlign=middle;resizable=0;points=[];autosize=1;fontSize=14;" vertex="1" parent="1">
          <mxGeometry x="623.13" y="452.5" width="40" height="20" as="geometry" />
        </mxCell>
        <mxCell id="sfmJpsZofoT2jx0BlZdd-37" style="edgeStyle=orthogonalEdgeStyle;rounded=0;orthogonalLoop=1;jettySize=auto;html=1;exitX=0.5;exitY=1;exitDx=0;exitDy=0;entryX=0.5;entryY=0;entryDx=0;entryDy=0;fontSize=14;" edge="1" parent="1" source="sfmJpsZofoT2jx0BlZdd-38" target="sfmJpsZofoT2jx0BlZdd-23">
          <mxGeometry relative="1" as="geometry" />
        </mxCell>
        <mxCell id="sfmJpsZofoT2jx0BlZdd-38" value="" style="ellipse;whiteSpace=wrap;html=1;aspect=fixed;fontSize=14;align=left;" vertex="1" parent="1">
          <mxGeometry x="186.87" y="640" width="20" height="20" as="geometry" />
        </mxCell>
        <mxCell id="sfmJpsZofoT2jx0BlZdd-39" style="edgeStyle=orthogonalEdgeStyle;rounded=0;orthogonalLoop=1;jettySize=auto;html=1;exitX=0.5;exitY=1;exitDx=0;exitDy=0;entryX=0.5;entryY=0;entryDx=0;entryDy=0;fontSize=14;" edge="1" parent="1" source="sfmJpsZofoT2jx0BlZdd-40" target="sfmJpsZofoT2jx0BlZdd-19">
          <mxGeometry relative="1" as="geometry" />
        </mxCell>
        <mxCell id="sfmJpsZofoT2jx0BlZdd-40" value="" style="ellipse;whiteSpace=wrap;html=1;aspect=fixed;fontSize=14;align=left;" vertex="1" parent="1">
          <mxGeometry x="186.87" y="185" width="20" height="20" as="geometry" />
        </mxCell>
        <mxCell id="sfmJpsZofoT2jx0BlZdd-41" value="no" style="text;html=1;align=center;verticalAlign=middle;resizable=0;points=[];autosize=1;fontSize=14;" vertex="1" parent="1">
          <mxGeometry x="675" y="410" width="30" height="20" as="geometry" />
        </mxCell>
        <mxCell id="sfmJpsZofoT2jx0BlZdd-42" value="etc." style="text;html=1;strokeColor=none;fillColor=none;align=center;verticalAlign=middle;whiteSpace=wrap;rounded=0;fontSize=14;" vertex="1" parent="1">
          <mxGeometry x="273.13" y="150" width="70" height="20" as="geometry" />
        </mxCell>
        <mxCell id="sfmJpsZofoT2jx0BlZdd-43" value="&lt;b&gt;&lt;i&gt;Universal Robot UR5e&lt;/i&gt;&lt;/b&gt;" style="text;html=1;strokeColor=none;fillColor=none;align=left;verticalAlign=middle;whiteSpace=wrap;rounded=0;fontSize=14;" vertex="1" parent="1">
          <mxGeometry x="30" y="50" width="190" height="20" as="geometry" />
        </mxCell>
        <mxCell id="sfmJpsZofoT2jx0BlZdd-44" value="" style="rounded=0;whiteSpace=wrap;html=1;fillColor=none;fontSize=14;align=right;" vertex="1" parent="1">
          <mxGeometry x="14" y="800" width="490" height="100" as="geometry" />
        </mxCell>
        <mxCell id="sfmJpsZofoT2jx0BlZdd-45" value="&lt;b&gt;&lt;i&gt;ATI Net F/T sensor&lt;/i&gt;&lt;/b&gt;" style="text;html=1;strokeColor=none;fillColor=none;align=left;verticalAlign=middle;whiteSpace=wrap;rounded=0;fontSize=14;" vertex="1" parent="1">
          <mxGeometry x="30" y="800" width="190" height="20" as="geometry" />
        </mxCell>
        <mxCell id="sfmJpsZofoT2jx0BlZdd-46" style="edgeStyle=orthogonalEdgeStyle;rounded=0;jumpStyle=none;orthogonalLoop=1;jettySize=auto;html=1;exitX=1;exitY=0.5;exitDx=0;exitDy=0;fontSize=14;" edge="1" parent="1" source="sfmJpsZofoT2jx0BlZdd-47" target="sfmJpsZofoT2jx0BlZdd-50">
          <mxGeometry relative="1" as="geometry" />
        </mxCell>
        <mxCell id="sfmJpsZofoT2jx0BlZdd-47" value="start" style="ellipse;whiteSpace=wrap;html=1;fontSize=14;align=center;" vertex="1" parent="1">
          <mxGeometry x="45" y="840" width="90" height="30" as="geometry" />
        </mxCell>
        <mxCell id="sfmJpsZofoT2jx0BlZdd-48" value="end" style="ellipse;whiteSpace=wrap;html=1;fontSize=14;align=center;" vertex="1" parent="1">
          <mxGeometry x="400" y="840" width="90" height="30" as="geometry" />
        </mxCell>
        <mxCell id="sfmJpsZofoT2jx0BlZdd-49" style="edgeStyle=orthogonalEdgeStyle;rounded=0;jumpStyle=none;orthogonalLoop=1;jettySize=auto;html=1;exitX=1;exitY=0.5;exitDx=0;exitDy=0;fontSize=14;" edge="1" parent="1" source="sfmJpsZofoT2jx0BlZdd-50" target="sfmJpsZofoT2jx0BlZdd-48">
          <mxGeometry relative="1" as="geometry" />
        </mxCell>
        <mxCell id="sfmJpsZofoT2jx0BlZdd-50" value="Sending&amp;nbsp;F/T readings" style="rounded=1;whiteSpace=wrap;html=1;fillColor=none;fontSize=14;align=center;" vertex="1" parent="1">
          <mxGeometry x="200" y="825" width="140" height="60" as="geometry" />
        </mxCell>
        <mxCell id="sfmJpsZofoT2jx0BlZdd-51" style="edgeStyle=orthogonalEdgeStyle;rounded=0;jumpStyle=none;orthogonalLoop=1;jettySize=auto;html=1;exitX=0.5;exitY=0;exitDx=0;exitDy=0;entryX=0.5;entryY=1;entryDx=0;entryDy=0;fontSize=14;" edge="1" parent="1" source="sfmJpsZofoT2jx0BlZdd-52" target="sfmJpsZofoT2jx0BlZdd-54">
          <mxGeometry relative="1" as="geometry" />
        </mxCell>
        <mxCell id="sfmJpsZofoT2jx0BlZdd-52" value="&lt;span style=&quot;background-color: rgb(153 , 204 , 255)&quot;&gt;Insertion Force Test&lt;/span&gt;" style="rounded=1;whiteSpace=wrap;html=1;fontSize=14;align=center;" vertex="1" parent="1">
          <mxGeometry x="353.13" y="680" width="140" height="40" as="geometry" />
        </mxCell>
        <mxCell id="sfmJpsZofoT2jx0BlZdd-53" style="edgeStyle=orthogonalEdgeStyle;rounded=0;jumpStyle=none;orthogonalLoop=1;jettySize=auto;html=1;exitX=0.5;exitY=0;exitDx=0;exitDy=0;entryX=0.5;entryY=1;entryDx=0;entryDy=0;fontSize=14;" edge="1" parent="1" source="sfmJpsZofoT2jx0BlZdd-54" target="sfmJpsZofoT2jx0BlZdd-58">
          <mxGeometry relative="1" as="geometry" />
        </mxCell>
        <mxCell id="sfmJpsZofoT2jx0BlZdd-54" value="&lt;div&gt;&lt;span&gt;Place Voyager with stick to PDSP&lt;/span&gt;&lt;/div&gt;" style="rounded=1;whiteSpace=wrap;html=1;fontSize=14;align=center;" vertex="1" parent="1">
          <mxGeometry x="353.13" y="607.5" width="140" height="52.5" as="geometry" />
        </mxCell>
        <mxCell id="sfmJpsZofoT2jx0BlZdd-55" style="edgeStyle=orthogonalEdgeStyle;rounded=0;orthogonalLoop=1;jettySize=auto;html=1;exitX=1;exitY=0.5;exitDx=0;exitDy=0;fontSize=14;entryX=1;entryY=0.5;entryDx=0;entryDy=0;" edge="1" parent="1" source="sfmJpsZofoT2jx0BlZdd-25" target="sfmJpsZofoT2jx0BlZdd-38">
          <mxGeometry relative="1" as="geometry">
            <mxPoint x="257.17999999999984" y="580" as="sourcePoint" />
            <mxPoint x="300" y="610" as="targetPoint" />
          </mxGeometry>
        </mxCell>
        <mxCell id="sfmJpsZofoT2jx0BlZdd-56" value="yes,&amp;nbsp;&lt;br&gt;last loop" style="text;html=1;strokeColor=none;fillColor=none;align=right;verticalAlign=middle;whiteSpace=wrap;rounded=0;fontSize=14;" vertex="1" parent="1">
          <mxGeometry x="207.5" y="590" width="70" height="40" as="geometry" />
        </mxCell>
        <mxCell id="sfmJpsZofoT2jx0BlZdd-57" style="edgeStyle=orthogonalEdgeStyle;rounded=0;jumpStyle=none;orthogonalLoop=1;jettySize=auto;html=1;exitX=0.5;exitY=0;exitDx=0;exitDy=0;fontSize=14;" edge="1" parent="1" source="sfmJpsZofoT2jx0BlZdd-58" target="sfmJpsZofoT2jx0BlZdd-60">
          <mxGeometry relative="1" as="geometry" />
        </mxCell>
        <mxCell id="sfmJpsZofoT2jx0BlZdd-58" value="&lt;span style=&quot;background-color: rgb(153 , 204 , 255)&quot;&gt;PDSP test&lt;/span&gt;" style="rounded=1;whiteSpace=wrap;html=1;fontSize=14;align=center;" vertex="1" parent="1">
          <mxGeometry x="353.13" y="550" width="140" height="35" as="geometry" />
        </mxCell>
        <mxCell id="sfmJpsZofoT2jx0BlZdd-59" style="edgeStyle=orthogonalEdgeStyle;rounded=0;jumpStyle=none;orthogonalLoop=1;jettySize=auto;html=1;exitX=0.5;exitY=0;exitDx=0;exitDy=0;entryX=0.5;entryY=1;entryDx=0;entryDy=0;fontSize=14;" edge="1" parent="1" source="sfmJpsZofoT2jx0BlZdd-60" target="sfmJpsZofoT2jx0BlZdd-62">
          <mxGeometry relative="1" as="geometry" />
        </mxCell>
        <mxCell id="sfmJpsZofoT2jx0BlZdd-60" value="Take Voyager with stick safely using tweezer from PDSP" style="rounded=1;whiteSpace=wrap;html=1;fontSize=14;align=center;" vertex="1" parent="1">
          <mxGeometry x="353.13" y="470" width="140" height="55" as="geometry" />
        </mxCell>
        <mxCell id="sfmJpsZofoT2jx0BlZdd-61" style="edgeStyle=orthogonalEdgeStyle;rounded=0;jumpStyle=none;orthogonalLoop=1;jettySize=auto;html=1;exitX=0.5;exitY=0;exitDx=0;exitDy=0;entryX=0.5;entryY=1;entryDx=0;entryDy=0;fontSize=14;" edge="1" parent="1" source="sfmJpsZofoT2jx0BlZdd-62" target="sfmJpsZofoT2jx0BlZdd-64">
          <mxGeometry relative="1" as="geometry" />
        </mxCell>
        <mxCell id="sfmJpsZofoT2jx0BlZdd-62" value="Place Voyager upon Arduino tool platform&amp;nbsp;&amp;nbsp;" style="rounded=1;whiteSpace=wrap;html=1;fontSize=14;align=center;" vertex="1" parent="1">
          <mxGeometry x="353.13" y="387.5" width="140" height="55" as="geometry" />
        </mxCell>
        <mxCell id="sfmJpsZofoT2jx0BlZdd-63" style="edgeStyle=orthogonalEdgeStyle;rounded=0;jumpStyle=none;orthogonalLoop=1;jettySize=auto;html=1;exitX=0.5;exitY=0;exitDx=0;exitDy=0;entryX=0.5;entryY=1;entryDx=0;entryDy=0;fontSize=14;" edge="1" parent="1" source="sfmJpsZofoT2jx0BlZdd-64" target="sfmJpsZofoT2jx0BlZdd-66">
          <mxGeometry relative="1" as="geometry" />
        </mxCell>
        <mxCell id="sfmJpsZofoT2jx0BlZdd-64" value="Arduino gripper fix Voyager" style="rounded=1;whiteSpace=wrap;html=1;fontSize=14;align=center;" vertex="1" parent="1">
          <mxGeometry x="353.13" y="305" width="140" height="55" as="geometry" />
        </mxCell>
        <mxCell id="sfmJpsZofoT2jx0BlZdd-65" style="edgeStyle=orthogonalEdgeStyle;rounded=0;jumpStyle=none;orthogonalLoop=1;jettySize=auto;html=1;exitX=0.5;exitY=0;exitDx=0;exitDy=0;entryX=0.5;entryY=0;entryDx=0;entryDy=0;fontSize=14;" edge="1" parent="1" source="sfmJpsZofoT2jx0BlZdd-66" target="sfmJpsZofoT2jx0BlZdd-68">
          <mxGeometry relative="1" as="geometry" />
        </mxCell>
        <mxCell id="sfmJpsZofoT2jx0BlZdd-66" value="&lt;span style=&quot;background-color: rgb(153 , 204 , 255)&quot;&gt;Extraction Force Test&lt;/span&gt;" style="rounded=1;whiteSpace=wrap;html=1;fontSize=14;align=center;" vertex="1" parent="1">
          <mxGeometry x="353.13" y="240" width="140" height="40" as="geometry" />
        </mxCell>
        <mxCell id="sfmJpsZofoT2jx0BlZdd-67" style="edgeStyle=orthogonalEdgeStyle;rounded=0;jumpStyle=none;orthogonalLoop=1;jettySize=auto;html=1;exitX=0.5;exitY=1;exitDx=0;exitDy=0;entryX=0.5;entryY=0;entryDx=0;entryDy=0;fontSize=14;" edge="1" parent="1" source="sfmJpsZofoT2jx0BlZdd-68" target="sfmJpsZofoT2jx0BlZdd-70">
          <mxGeometry relative="1" as="geometry" />
        </mxCell>
        <mxCell id="sfmJpsZofoT2jx0BlZdd-68" value="Throw stick to recycle bin" style="rounded=1;whiteSpace=wrap;html=1;fontSize=14;align=center;" vertex="1" parent="1">
          <mxGeometry x="558.75" y="240" width="127.5" height="55" as="geometry" />
        </mxCell>
        <mxCell id="sfmJpsZofoT2jx0BlZdd-69" style="edgeStyle=orthogonalEdgeStyle;rounded=0;jumpStyle=none;orthogonalLoop=1;jettySize=auto;html=1;exitX=0.5;exitY=1;exitDx=0;exitDy=0;entryX=0.5;entryY=0;entryDx=0;entryDy=0;fontSize=14;" edge="1" parent="1" source="sfmJpsZofoT2jx0BlZdd-70" target="sfmJpsZofoT2jx0BlZdd-35">
          <mxGeometry relative="1" as="geometry" />
        </mxCell>
        <mxCell id="sfmJpsZofoT2jx0BlZdd-70" value="UR robot move to start position" style="rounded=1;whiteSpace=wrap;html=1;fontSize=14;align=center;" vertex="1" parent="1">
          <mxGeometry x="558.75" y="322.5" width="127.5" height="55" as="geometry" />
        </mxCell>
        <mxCell id="sfmJpsZofoT2jx0BlZdd-72" value="pallet&amp;nbsp; for 50 sticks" style="text;html=1;strokeColor=none;fillColor=none;align=center;verticalAlign=middle;whiteSpace=wrap;rounded=0;dashed=1;" vertex="1" parent="1">
          <mxGeometry x="68.6" y="543" width="57.65" height="20" as="geometry" />
        </mxCell>
      </root>
    </mxGraphModel>
  </diagram>
</mxfile>
